name Walk4.mot
datacolumns 19
datarows 20
range 2.06600000 2.08500000
endheader

                time	   L_ground_force_vx	   L_ground_force_vy	   L_ground_force_vz	   L_ground_force_px	   L_ground_force_py	   L_ground_force_pz	   R_ground_force_vx	   R_ground_force_vy	   R_ground_force_vz	   R_ground_force_px	   R_ground_force_py	   R_ground_force_pz	   L_ground_torque_x	   L_ground_torque_y	   L_ground_torque_z	   R_ground_torque_x	   R_ground_torque_y	   R_ground_torque_z	
          2.06600000	         20.37003528	        652.19195893	         37.15289847	         -0.44354573	          0.00000000	         -0.07289660	         -0.04133667	          0.34456612	          0.04122212	          0.00004636	          0.00000000	          0.00005719	          0.00000000	          0.36170101	          0.00000000	          0.00000000	         -0.01093521	          0.00000000	
          2.06700000	         20.71390728	        653.84800425	         37.25766835	         -0.44314700	          0.00000000	         -0.07295194	         -0.04411291	          0.35734960	          0.04229245	          0.00004796	          0.00000000	          0.00005835	          0.00000000	          0.36404900	          0.00000000	          0.00000000	         -0.01102017	          0.00000000	
          2.06800000	         21.05893212	        655.50691687	         37.36390992	         -0.44274714	          0.00000000	         -0.07300717	         -0.04696495	          0.36984516	          0.04328758	          0.00004950	          0.00000000	          0.00005938	          0.00000000	          0.36638112	          0.00000000	          0.00000000	         -0.01106751	          0.00000000	
          2.06900000	         21.40503709	        657.16797461	         37.47157898	         -0.44234610	          0.00000000	         -0.07306230	         -0.04988806	          0.38197444	          0.04419641	          0.00005098	          0.00000000	          0.00006027	          0.00000000	          0.36870543	          0.00000000	          0.00000000	         -0.01107355	          0.00000000	
          2.07000000	         21.75214828	        658.83045964	         37.58062546	         -0.44194386	          0.00000000	         -0.07311735	         -0.05287677	          0.39365331	          0.04500717	          0.00005239	          0.00000000	          0.00006098	          0.00000000	          0.37103013	          0.00000000	          0.00000000	         -0.01103442	          0.00000000	
          2.07100000	         22.10019084	        660.49365950	         37.69099330	         -0.44154036	          0.00000000	         -0.07317235	         -0.05592482	          0.40479169	          0.04570739	          0.00005371	          0.00000000	          0.00006151	          0.00000000	          0.37336331	          0.00000000	          0.00000000	         -0.01094607	          0.00000000	
          2.07200000	         22.44908947	        662.15686903	         37.80262061	         -0.44113558	          0.00000000	         -0.07322729	         -0.05902515	          0.41529336	          0.04628391	          0.00005493	          0.00000000	          0.00006184	          0.00000000	          0.37571286	          0.00000000	          0.00000000	         -0.01080431	          0.00000000	
          2.07300000	         22.79876893	        663.81939263	         37.91544006	         -0.44072948	          0.00000000	         -0.07328222	         -0.06216981	          0.42505576	          0.04672286	          0.00005604	          0.00000000	          0.00006194	          0.00000000	          0.37808641	          0.00000000	          0.00000000	         -0.01060476	          0.00000000	
          2.07400000	         23.14915451	        665.48054648	         38.02937941	         -0.44032203	          0.00000000	         -0.07333712	         -0.06534993	          0.43396990	          0.04700963	          0.00005703	          0.00000000	          0.00006179	          0.00000000	          0.38049145	          0.00000000	          0.00000000	         -0.01034287	          0.00000000	
          2.07500000	         23.50017236	        667.13966042	         38.14436198	         -0.43991321	          0.00000000	         -0.07339202	         -0.06855568	          0.44192013	          0.04712891	          0.00005786	          0.00000000	          0.00006137	          0.00000000	          0.38293541	          0.00000000	          0.00000000	         -0.01001393	          0.00000000	
          2.07600000	         23.85174996	        668.79607891	         38.26030695	         -0.43950298	          0.00000000	         -0.07344693	         -0.07177619	          0.44878404	          0.04706463	          0.00005854	          0.00000000	          0.00006067	          0.00000000	          0.38542575	          0.00000000	          0.00000000	         -0.00961306	          0.00000000	
          2.07700000	         24.20381667	        670.44916124	         38.37712947	         -0.43909133	          0.00000000	         -0.07350185	         -0.07499953	          0.45443235	          0.04680000	          0.00005904	          0.00000000	          0.00005964	          0.00000000	          0.38796996	          0.00000000	          0.00000000	         -0.00913524	          0.00000000	
          2.07800000	         24.55630437	        672.09828099	         38.49474058	         -0.43867823	          0.00000000	         -0.07355679	         -0.07821267	          0.45872875	          0.04631751	          0.00005934	          0.00000000	          0.00005828	          0.00000000	          0.39057552	          0.00000000	          0.00000000	         -0.00857529	          0.00000000	
          2.07900000	         24.90914815	        673.74282520	         38.61304721	         -0.43826366	          0.00000000	         -0.07361174	         -0.08140137	          0.46152990	          0.04559890	          0.00005942	          0.00000000	          0.00005654	          0.00000000	          0.39324986	          0.00000000	          0.00000000	         -0.00792790	          0.00000000	
          2.08000000	         25.26228668	        675.38219327	         38.73195227	         -0.43784761	          0.00000000	         -0.07366672	         -0.08455021	          0.46268526	          0.04462518	          0.00005927	          0.00000000	          0.00005442	          0.00000000	          0.39600036	          0.00000000	          0.00000000	         -0.00718760	          0.00000000	
          2.08100000	         25.61566215	        677.01579591	         38.85135490	         -0.43743007	          0.00000000	         -0.07372173	         -0.08764247	          0.46203714	          0.04337669	          0.00005885	          0.00000000	          0.00005187	          0.00000000	          0.39883443	          0.00000000	          0.00000000	         -0.00634883	          0.00000000	
          2.08200000	         25.96921976	        678.64305392	         38.97115072	         -0.43701101	          0.00000000	         -0.07377676	         -0.09066012	          0.45942062	          0.04183304	          0.00005816	          0.00000000	          0.00004887	          0.00000000	          0.40175966	          0.00000000	          0.00000000	         -0.00540589	          0.00000000	
          2.08300000	         26.32290709	        680.26339713	         39.09123202	         -0.43659043	          0.00000000	         -0.07383181	         -0.09358376	          0.45466359	          0.03997318	          0.00005716	          0.00000000	          0.00004538	          0.00000000	          0.40478397	          0.00000000	          0.00000000	         -0.00435301	          0.00000000	
          2.08400000	         26.67667346	        681.87626399	         39.21148803	         -0.43616833	          0.00000000	         -0.07388688	         -0.09639259	          0.44758680	          0.03777540	          0.00005583	          0.00000000	          0.00004139	          0.00000000	          0.40791571	          0.00000000	          0.00000000	         -0.00318430	          0.00000000	
          2.08500000	         27.03046945	        683.48110178	         39.33180521	         -0.43574469	          0.00000000	         -0.07394195	         -0.09906435	          0.43800391	          0.03521739	          0.00005414	          0.00000000	          0.00003686	          0.00000000	          0.41116359	          0.00000000	          0.00000000	         -0.00189385	          0.00000000	
